<svg xmlns="http://www.w3.org/2000/svg" viewBox="0 0 114.96 155.04">
<defs><style>.cls-1,.cls-2{fill:#fc5b7c;}.cls-1{stroke:#fff;stroke-linecap:round;stroke-linejoin:round;stroke-width:0.51px;}</style>
</defs>
<title>Ativo 2</title>
<g id="Camada_2" data-name="Camada 2">
<g id="Camada_1-2" data-name="Camada 1">
<path id="Forma_3" data-name="Forma 3" class="cls-1" d="M24.71,43.19l32,47h11l30-45v81h17V8.19h-13l-40,57-36-51Z"/>
<path class="cls-2" d="M15.34,0A13.56,13.56,0,0,0,1.57,13.37L0,120.54v.08a2,2,0,0,0,.08.54l10.71,32.22A2.41,2.41,0,0,0,13.07,155a2.32,2.32,0,0,0,.7-.09h0l.1,0a2.24,2.24,0,0,0,.9-.54,2.45,2.45,0,0,0,.6-.93l6.17-16.89,5.48-15a1.6,1.6,0,0,0,.09-.53l.07-4.28,1-65.88a1.63,1.63,0,0,0-3.25,0l-1,68.45-4.7-.07,1.25-85.58,4.7.06-.1,7a1.63,1.63,0,0,0,3.25.05l.39-26.94A13.57,13.57,0,0,0,15.34,0Zm-2.2,150.12L8.93,137.46l8.79.13ZM23.22,122.5,18.9,134.35l-11.06-.16-4-12ZM16,119.14l-4.72-.07.11-7.48a1.63,1.63,0,0,0-3.25,0L8,119,3.28,119,4.53,33.37l4.7.07-1,67.9a1.63,1.63,0,0,0,3.25,0l1-67.9,4.71.07Zm9.26-88.72-20.63-.3.08-5.84,20.63.31Zm.24-16.7-.11,7.61L4.71,21l.11-7.61a10.32,10.32,0,0,1,17.72-7A10.25,10.25,0,0,1,25.45,13.72Z"/></g></g></svg>